PathFileType	4	(x/y/z)	S06_PSF_T08
DataRate	CameraRate	NumFrames	NumMarkers	Units	OrigDataRate	OrigDataStartFrame	OrigNumFrames
240	240	9	51	mm	240	357	407
Frame#	Time	Sternum			R.Acromium			L.Acromium			Top.Head			R.ASIS			L.ASIS			R.PSIS			L.PSIS			R.Great.Tro			L.Great.Tro			R.Iliac.Crest			L.Iliac.Crest			V.Sacral			R.Thigh.Upper.Post			R.Thigh.Lower.Ant			R.Thigh.Lower.Post			R.Thigh.Upper.Ant			R.Knee.Lat			R.Knee.Med			R.Shank.Upper.Post			R.Shank.Lower.Ant			R.Shank.Lower.Post			R.Shank.Upper.Ant			R.Ankle.Lat			R.Ankle.Med			R.Heel.Upper			R.Heel.Med			R.Heel.Lat			R.Toe.Lat			R.Toe.Med			R.Toe.Tip			L.Thigh.Upper.Post			L.Thigh.Lower.Ant			L.Thigh.Lower.Post			L.Thigh.Upper.Ant			L.Knee.Lat			L.Knee.Med			L.Shank.Upper.Post			L.Shank.Lower.Ant			L.Shank.Lower.Post			L.Shank.Upper.Ant			L.Ankle.Lat			L.Ankle.Med			L.Heel.Upper			L.Heel.Med			L.Heel.Lat			L.Toe.Lat			L.Toe.Med			L.Toe.Tip			Cervical.Spine			Back			
		X1	Y1	Z1	X2	Y2	Z2	X3	Y3	Z3	X4	Y4	Z4	X5	Y5	Z5	X6	Y6	Z6	X7	Y7	Z7	X8	Y8	Z8	X9	Y9	Z9	X10	Y10	Z10	X11	Y11	Z11	X12	Y12	Z12	X13	Y13	Z13	X14	Y14	Z14	X15	Y15	Z15	X16	Y16	Z16	X17	Y17	Z17	X18	Y18	Z18	X19	Y19	Z19	X20	Y20	Z20	X21	Y21	Z21	X22	Y22	Z22	X23	Y23	Z23	X24	Y24	Z24	X25	Y25	Z25	X26	Y26	Z26	X27	Y27	Z27	X28	Y28	Z28	X29	Y29	Z29	X30	Y30	Z30	X31	Y31	Z31	X32	Y32	Z32	X33	Y33	Z33	X34	Y34	Z34	X35	Y35	Z35	X36	Y36	Z36	X37	Y37	Z37	X38	Y38	Z38	X39	Y39	Z39	X40	Y40	Z40	X41	Y41	Z41	X42	Y42	Z42	X43	Y43	Z43	X44	Y44	Z44	X45	Y45	Z45	X46	Y46	Z46	X47	Y47	Z47	X48	Y48	Z48	X49	Y49	Z49	X50	Y50	Z50	X51	Y51	Z51	

357	1.4833	459.72	1292.5	330.95	325.72	1496.3	495.42	333.48	1498.1	142.25	361.44	1815.4	322.7	405.18	1055.9	449.63	421.01	1053.1	199.32	211.18	1075.9	349.95	214.66	1081.2	269.17	353.16	983.29	499.4	317.77	981.57	141.97	320.08	1129.7	478.35	354	1127.8	160.79	198.47	1044.8	311.58	455.25	755.51	495.98	538.1	702.63	464.08	478.64	670.24	478.53	515.89	790.15	475.99	536.97	578.06	470.8	543.32	579.46	342.57	483.17	356.86	479.48	538.75	289.32	462.09	474.66	280.42	468.42	546.82	364.77	473	495.58	147.65	449.86	516.04	151.4	365.11	435.13	103.83	397.35	445.34	70.895	369.84	438.12	74.795	434.36	609.22	62.935	491.61	645.3	63.301	377.16	706.23	81.242	426.43	335.43	721.9	177.71	370.04	635.7	238.58	301.75	639.4	197.92	398.13	724.21	214.08	264.52	546.43	216.25	289.96	553.97	336.4	189.43	322.82	238.91	247.35	255.2	242.39	177.98	253.08	260.52	255.05	324.45	227.05	210.95	110.08	266.09	224.31	131.6	351.51	132.44	76.52	310.92	135.88	47.31	342.4	136.73	51.397	280.6	315.73	44.544	240.89	336.65	41.932	361.13	408.57	52.719	305.59	273.69	1549.9	318.17	218.81	1277.4	312.48
358	1.4875	465.02	1291.8	331.05	330.91	1495.6	495.47	338.96	1497.5	142.32	366.62	1814.8	322.84	410.5	1055.2	449.66	426.21	1052.4	199.3	216.45	1075.2	350.06	219.85	1080.6	269.28	358.46	982.55	499.4	322.6	981.05	142.07	325.34	1129	478.4	359.22	1127.1	160.82	203.75	1044.2	311.69	459.45	754.33	495.61	542.12	701.25	463.64	482.53	669.02	478.01	520.15	788.82	475.6	541.32	576.99	470.21	547.44	578.36	341.95	492.91	354.44	478.6	550.25	288.44	461.33	486.39	277.8	467.4	556.37	364	472.29	510.89	145.49	448.73	531.54	149.98	364.1	451.84	100.15	395.96	463.05	67.655	368.36	455.51	71.111	432.84	626.64	63.574	490.7	663	65.402	376.43	723.28	84.726	426.05	338.84	721.53	177.74	373.18	635.11	238.46	304.81	639.18	197.97	401.63	723.55	214	267	546.37	216.31	292.67	553.71	336.45	190.73	323.13	239.08	248.29	255.23	242.47	178.95	253.46	260.66	256.35	324.42	227.1	211.19	110.25	266.24	224.76	131.74	351.63	132.55	76.586	311.07	135.94	47.386	342.51	136.79	51.535	280.71	315.76	44.55	240.94	336.74	41.841	361.17	408.68	52.492	305.61	279.05	1549.4	318.19	224.1	1276.8	312.42
359	1.4917	470.33	1291.1	331.15	336.12	1494.9	495.54	344.45	1496.9	142.39	371.81	1814.2	322.97	415.84	1054.6	449.69	431.42	1051.7	199.28	221.74	1074.6	350.17	225.07	1080	269.39	363.76	981.77	499.4	327.46	980.51	142.17	330.62	1128.3	478.46	364.46	1126.4	160.85	209.06	1043.6	311.8	463.6	753.08	495.3	546.04	699.76	463.23	486.33	667.72	477.53	524.33	787.4	475.24	545.54	575.84	469.62	551.42	577.16	341.33	502.49	352.07	477.67	561.55	287.63	460.56	497.95	275.28	466.31	565.73	363.26	471.56	526.05	143.52	447.54	546.85	148.77	363.04	468.41	96.704	394.51	480.61	64.685	366.81	472.79	67.647	431.25	643.85	64.42	489.68	680.43	67.804	375.59	740.02	88.46	425.57	342.31	721.16	177.76	376.39	634.52	238.33	307.95	638.95	198.01	405.19	722.87	213.89	269.56	546.29	216.36	295.47	553.45	336.48	192.09	323.44	239.24	249.28	255.25	242.54	179.96	253.85	260.8	257.7	324.38	227.16	211.45	110.43	266.4	225.21	131.88	351.74	132.67	76.649	311.22	136.01	47.465	342.62	136.85	51.671	280.83	315.79	44.556	240.99	336.84	41.75	361.21	408.8	52.257	305.63	284.42	1548.8	318.22	229.4	1276.1	312.38
360	1.4958	475.65	1290.4	331.25	341.34	1494.2	495.6	349.93	1496.3	142.47	377	1813.5	323.11	421.19	1053.8	449.73	436.66	1051	199.26	227.04	1074	350.3	230.3	1079.3	269.51	369.08	980.96	499.4	332.34	979.95	142.26	335.9	1127.6	478.52	369.74	1125.7	160.89	214.39	1042.9	311.92	467.68	751.76	495.05	549.89	698.19	462.87	490.05	666.35	477.11	528.46	785.9	474.91	549.62	574.6	469.05	555.29	575.88	340.7	511.89	349.77	476.68	572.63	286.9	459.77	509.33	272.87	465.16	574.88	362.56	470.82	541.04	141.73	446.28	561.96	147.79	361.94	484.82	93.484	393	497.99	61.988	365.17	489.93	64.407	429.58	660.82	65.464	488.57	697.55	70.494	374.66	756.44	92.429	424.99	345.85	720.77	177.77	379.68	633.92	238.18	311.16	638.7	198.04	408.82	722.19	213.76	272.21	546.2	216.42	298.36	553.19	336.5	193.51	323.75	239.4	250.31	255.27	242.61	181.02	254.25	260.93	259.11	324.34	227.22	211.72	110.61	266.56	225.68	132.03	351.85	132.79	76.71	311.38	136.08	47.547	342.74	136.9	51.806	280.96	315.83	44.56	241.04	336.93	41.661	361.25	408.91	52.015	305.64	289.79	1548.1	318.25	234.71	1275.5	312.34
361	1.5	480.98	1289.7	331.35	346.58	1493.5	495.68	355.42	1495.6	142.55	382.2	1812.8	323.24	426.56	1053.1	449.76	441.93	1050.3	199.24	232.37	1073.3	350.43	235.55	1078.7	269.64	374.41	980.11	499.4	337.25	979.37	142.36	341.21	1126.9	478.59	375.04	1124.9	160.94	219.74	1042.2	312.06	471.72	750.38	494.85	553.68	696.54	462.53	493.69	664.92	476.72	532.55	784.33	474.61	553.58	573.28	468.48	559.05	574.52	340.06	521.11	347.52	475.63	583.49	286.25	458.96	520.5	270.58	463.94	583.81	361.88	470.08	555.82	140.12	444.97	576.84	147.01	360.79	501.04	90.495	391.44	515.17	59.563	363.46	506.89	61.391	427.84	677.54	66.694	487.35	714.34	73.46	373.63	772.49	96.615	424.31	349.45	720.37	177.76	383.04	633.32	238.01	314.45	638.44	198.06	412.51	721.49	213.6	274.95	546.1	216.47	301.34	552.92	336.52	194.99	324.07	239.54	251.39	255.28	242.68	182.12	254.66	261.05	260.57	324.29	227.27	212.01	110.81	266.72	226.16	132.19	351.96	132.91	76.773	311.54	136.16	47.636	342.86	136.96	51.941	281.09	315.86	44.564	241.1	337.03	41.574	361.3	409.03	51.765	305.66	295.16	1547.5	318.29	240.03	1274.8	312.32
362	1.5042	486.32	1288.9	331.44	351.83	1492.7	495.75	360.91	1494.9	142.63	387.41	1812.2	323.38	431.94	1052.4	449.81	447.21	1049.5	199.22	237.71	1072.6	350.58	240.82	1078	269.78	379.75	979.23	499.41	342.19	978.78	142.45	346.52	1126.2	478.67	380.36	1124.2	160.99	225.11	1041.5	312.2	475.72	748.96	494.71	557.41	694.83	462.22	497.28	663.44	476.37	536.61	782.7	474.35	557.43	571.89	467.92	562.72	573.1	339.42	530.13	345.34	474.52	594.1	285.67	458.13	531.47	268.39	462.65	592.51	361.24	469.32	570.36	138.69	443.61	591.46	146.44	359.6	517.04	87.737	389.83	532.09	57.409	361.69	523.65	58.6	426.03	693.97	68.095	486.04	730.75	76.68	372.51	788.17	101	423.53	353.11	719.97	177.74	386.48	632.7	237.83	317.8	638.17	198.07	416.26	720.79	213.42	277.77	545.99	216.52	304.4	552.65	336.53	196.52	324.4	239.68	252.51	255.3	242.74	183.27	255.08	261.16	262.09	324.24	227.33	212.31	111.01	266.87	226.66	132.36	352.06	133.02	76.84	311.71	136.23	47.733	342.98	137.01	52.077	281.22	315.89	44.567	241.16	337.12	41.49	361.34	409.15	51.507	305.68	300.54	1546.8	318.34	245.35	1274.1	312.32
363	1.5083	491.66	1288.2	331.54	357.1	1492	495.83	366.39	1494.2	142.72	392.62	1811.5	323.51	437.34	1051.6	449.85	452.52	1048.7	199.2	243.07	1071.8	350.73	246.11	1077.3	269.93	385.11	978.34	499.42	347.16	978.18	142.54	351.86	1125.4	478.75	385.7	1123.4	161.05	230.51	1040.7	312.36	479.7	747.5	494.62	561.09	693.06	461.94	500.81	661.92	476.05	540.64	781.02	474.12	561.18	570.44	467.36	566.3	571.62	338.75	538.95	343.22	473.34	604.45	285.16	457.28	542.19	266.32	461.3	600.98	360.62	468.55	584.64	137.43	442.2	605.79	146.08	358.37	532.78	85.206	388.17	548.74	55.52	359.84	540.16	56.03	424.15	710.08	69.652	484.63	746.77	80.133	371.29	803.43	105.54	422.66	356.84	719.56	177.71	389.98	632.09	237.63	321.22	637.9	198.07	420.08	720.07	213.22	280.67	545.87	216.57	307.55	552.38	336.53	198.12	324.73	239.81	253.67	255.32	242.8	184.46	255.52	261.27	263.66	324.19	227.38	212.62	111.23	267.02	227.16	132.54	352.16	133.14	76.918	311.87	136.31	47.842	343.11	137.07	52.219	281.36	315.93	44.568	241.23	337.22	41.408	361.38	409.27	51.243	305.7	305.93	1546.1	318.39	250.68	1273.4	312.33
364	1.5125	497.01	1287.4	331.64	362.37	1491.2	495.92	371.88	1493.5	142.82	397.85	1810.7	323.65	442.75	1050.8	449.91	457.85	1048	199.18	248.45	1071.1	350.89	251.44	1076.5	270.09	390.47	977.42	499.43	352.17	977.56	142.63	357.2	1124.7	478.85	391.06	1122.7	161.11	235.92	1039.9	312.52	483.66	746	494.56	564.75	691.25	461.68	504.31	660.38	475.75	544.66	779.3	473.93	564.84	568.94	466.79	569.81	570.11	338.07	547.55	341.17	472.1	614.52	284.72	456.41	552.67	264.36	459.88	609.21	360.03	467.77	598.63	136.34	440.75	619.82	145.89	357.1	548.24	82.9	386.47	565.06	53.888	357.93	556.4	53.679	422.22	725.84	71.344	483.12	762.35	83.789	369.98	818.27	110.22	421.7	360.62	719.14	177.66	393.55	631.47	237.41	324.71	637.61	198.07	423.96	719.35	213	283.66	545.75	216.62	310.78	552.1	336.52	199.77	325.08	239.93	254.88	255.34	242.85	185.7	255.96	261.36	265.29	324.14	227.43	212.95	111.46	267.17	227.68	132.74	352.25	133.25	77.01	312.04	136.38	47.967	343.25	137.12	52.369	281.5	315.96	44.568	241.29	337.32	41.33	361.42	409.4	50.971	305.71	311.31	1545.4	318.45	256.02	1272.7	312.35
365	1.5167	502.37	1286.6	331.74	367.66	1490.4	496.01	377.36	1492.8	142.92	403.09	1810	323.79	448.17	1050.1	449.96	463.2	1047.2	199.16	253.85	1070.3	351.06	256.78	1075.7	270.26	395.85	976.49	499.46	357.22	976.92	142.72	362.56	1123.9	478.95	396.43	1121.9	161.19	241.36	1039.2	312.69	487.61	744.49	494.54	568.38	689.41	461.43	507.78	658.81	475.45	548.67	777.55	473.77	568.41	567.4	466.22	573.27	568.58	337.37	555.92	339.19	470.79	624.32	284.33	455.51	562.89	262.51	458.39	617.19	359.46	466.98	612.31	135.41	439.25	633.51	145.89	355.8	563.37	80.81	384.74	581.03	52.502	355.97	572.33	51.54	420.22	741.23	73.151	481.53	777.48	87.616	368.58	832.64	115.01	420.65	364.47	718.72	177.61	397.19	630.84	237.17	328.27	637.32	198.06	427.9	718.62	212.75	286.73	545.63	216.67	314.09	551.82	336.51	201.48	325.44	240.04	256.12	255.36	242.9	186.98	256.43	261.45	266.97	324.08	227.48	213.29	111.71	267.31	228.22	132.95	352.34	133.36	77.122	312.2	136.47	48.111	343.39	137.17	52.531	281.65	316	44.567	241.36	337.42	41.256	361.46	409.53	50.694	305.73	316.7	1544.7	318.52	261.37	1271.9	312.38
